HIERARCHY
ROOT Hips
{
	OFFSET 0.000000 0.000000 0.000000
	CHANNELS 6 Xposition Yposition Zposition Xrotation Yrotation Zrotation
	JOINT Spine
	{
		OFFSET 0.000000 0.053497 0.080245
		CHANNELS 3 Xrotation Yrotation Zrotation
		JOINT Spine1
		{
			OFFSET 0.000000 0.018579 0.105368
			CHANNELS 3 Xrotation Yrotation Zrotation
			JOINT Spine2
			{
				OFFSET 0.000000 0.009325 0.106586
				CHANNELS 3 Xrotation Yrotation Zrotation
				JOINT Spine3
				{
					OFFSET 0.000000 0.000000 0.106993
					CHANNELS 3 Xrotation Yrotation Zrotation
					JOINT Neck
					{
						OFFSET 0.000000 -0.040122 0.280858
						CHANNELS 3 Xrotation Yrotation Zrotation
						JOINT Head
						{
							OFFSET 0.000000 -0.025546 0.144881
							CHANNELS 3 Xrotation Yrotation Zrotation
							End Site
							{
								OFFSET 0.000000 0.000000 0.000000
							}
						}
					}
					JOINT RightShoulder
					{
						OFFSET -0.032541 -0.054234 0.175720
						CHANNELS 3 Xrotation Yrotation Zrotation
						JOINT RightArm
						{
							OFFSET -0.161619 0.000000 0.000000
							CHANNELS 3 Xrotation Yrotation Zrotation
							JOINT RightForeArm
							{
								OFFSET -0.257104 0.000000 0.000000
								CHANNELS 3 Xrotation Yrotation Zrotation
								JOINT RightHand
								{
									OFFSET -0.273485 0.000000 0.000000
									CHANNELS 3 Xrotation Yrotation Zrotation
									JOINT RightHandEnd
									{
										OFFSET -0.070844 0.000000 0.000000
										CHANNELS 3 Xrotation Yrotation Zrotation
										End Site
										{
											OFFSET 0.000000 0.000000 0.000000
										}
									}
									JOINT RightHandThumb1
									{
										OFFSET -0.028338 -0.047230 -0.018892
										CHANNELS 3 Xrotation Yrotation Zrotation
										End Site
										{
											OFFSET 0.000000 0.000000 0.000000
										}
									}
								}
							}
						}
					}
					JOINT LeftShoulder
					{
						OFFSET 0.032541 -0.054234 0.175720
						CHANNELS 3 Xrotation Yrotation Zrotation
						JOINT LeftArm
						{
							OFFSET 0.161619 0.000000 0.000000
							CHANNELS 3 Xrotation Yrotation Zrotation
							JOINT LeftForeArm
							{
								OFFSET 0.257104 0.000000 0.000000
								CHANNELS 3 Xrotation Yrotation Zrotation
								JOINT LeftHand
								{
									OFFSET 0.273485 0.000000 0.000000
									CHANNELS 3 Xrotation Yrotation Zrotation
									JOINT LeftHandEnd
									{
										OFFSET 0.070844 0.000000 0.000000
										CHANNELS 3 Xrotation Yrotation Zrotation
										End Site
										{
											OFFSET 0.000000 0.000000 0.000000
										}
									}
									JOINT LeftHandThumb1
									{
										OFFSET 0.028338 -0.047230 -0.018892
										CHANNELS 3 Xrotation Yrotation Zrotation
										End Site
										{
											OFFSET 0.000000 0.000000 0.000000
										}
									}
								}
							}
						}
					}
				}
			}
		}
	}
	JOINT RightUpLeg
	{
		OFFSET -0.096537 0.000000 -0.028202
		CHANNELS 3 Xrotation Yrotation Zrotation
		JOINT RightLeg
		{
			OFFSET 0.000000 0.000000 -0.431842
			CHANNELS 3 Xrotation Yrotation Zrotation
			JOINT RightFoot
			{
				OFFSET 0.000000 0.000000 -0.456398
				CHANNELS 3 Xrotation Yrotation Zrotation
				JOINT RightToeBase
				{
					OFFSET 0.000000 -0.128905 -0.046918
					CHANNELS 3 Xrotation Yrotation Zrotation
					End Site
					{
						OFFSET 0.000000 0.000000 0.000000
					}
				}
			}
		}
	}
	JOINT LeftUpLeg
	{
		OFFSET 0.096537 0.000000 -0.028202
		CHANNELS 3 Xrotation Yrotation Zrotation
		JOINT LeftLeg
		{
			OFFSET 0.000000 0.000000 -0.431842
			CHANNELS 3 Xrotation Yrotation Zrotation
			JOINT LeftFoot
			{
				OFFSET 0.000000 0.000000 -0.456398
				CHANNELS 3 Xrotation Yrotation Zrotation
				JOINT LeftToeBase
				{
					OFFSET 0.000000 -0.128905 -0.046918
					CHANNELS 3 Xrotation Yrotation Zrotation
					End Site
					{
						OFFSET 0.000000 0.000000 0.000000
					}
				}
			}
		}
	}
}
MOTION
Frames: 13
Frame Time: 0.033333
0.280988 0.597024 0.878632 11.041300 -1.984700 -5.533500 20.802000 0.378600 1.621700 11.313300 0.791600 0.209900 11.918900 -0.245700 -1.192400 2.208500 -0.205900 -0.332700 -4.613800 -3.299700 0.861400 -7.632100 2.302600 3.825100 2.699200 -5.500200 19.302000 17.264700 -51.372800 38.703000 0.000000 0.000000 19.514200 -41.629900 -11.608900 -5.317900 0.000000 0.000000 0.000000 0.000000 0.000000 0.000000 0.579000 8.289200 -28.305000 -7.761000 49.396300 -22.422600 0.000000 0.000000 -9.102600 -40.613400 18.451600 18.626000 0.000000 0.000000 0.000000 0.000000 0.000000 0.000000 -44.627200 -2.264200 3.291500 52.734000 0.000000 0.000000 -18.440600 0.330900 -20.396400 -0.282800 0.000000 0.000000 -45.520100 5.427700 2.928200 46.359100 0.000000 0.000000 -18.503300 19.743000 8.747300 7.872600 0.000000 0.000000 
0.280088 0.596842 0.878459 10.982400 -1.968700 -5.502200 20.698300 0.376400 1.637100 11.243900 0.793500 0.210700 11.925000 -0.318900 -1.150700 2.223000 -0.252500 -0.271200 -4.304700 -3.288900 0.817700 -7.805300 2.200700 3.760600 2.806800 -5.515800 19.159900 17.304400 -51.446700 38.492900 0.000000 0.000000 19.709100 -41.417800 -11.567800 -5.231800 0.000000 0.000000 0.000000 0.000000 0.000000 0.000000 0.577700 8.162400 -28.116600 -7.610300 49.698800 -22.510800 0.000000 0.000000 -9.126900 -40.498600 18.564800 18.643800 0.000000 0.000000 0.000000 0.000000 0.000000 0.000000 -44.573100 -2.259400 3.152900 52.783200 0.000000 0.000000 -18.483800 0.312100 -20.343900 -0.422300 0.000000 0.000000 -45.497500 5.418900 2.833700 46.461200 0.000000 0.000000 -18.531400 19.672400 8.806000 7.822800 0.000000 0.000000 
0.279100 0.596453 0.879917 10.895900 -1.934400 -5.512600 20.561700 0.349000 1.669700 11.128300 0.787300 0.218200 11.904900 -0.332300 -1.090000 2.241500 -0.282700 -0.231900 -4.009200 -3.380400 0.738900 -7.908800 2.088600 3.675000 2.935600 -5.526800 18.910400 17.671000 -51.359700 38.610100 0.000000 0.000000 19.880500 -41.245500 -11.469500 -5.207700 0.000000 0.000000 0.000000 0.000000 0.000000 0.000000 0.627100 8.121500 -27.943500 -7.340300 49.857700 -22.604300 0.000000 0.000000 -9.160800 -40.257000 18.406100 18.533100 0.000000 0.000000 0.000000 0.000000 0.000000 0.000000 -44.210800 -2.340100 3.151000 52.351500 0.000000 0.000000 -18.327100 0.323300 -20.391800 -0.520000 0.000000 0.000000 -45.155600 5.344600 2.768600 46.082500 0.000000 0.000000 -18.359900 19.679000 8.790300 7.791700 0.000000 0.000000 
0.278089 0.596001 0.883191 10.870500 -1.826800 -5.487300 20.330900 0.247300 1.693700 10.966500 0.747300 0.222000 11.859400 -0.319000 -1.087700 2.252200 -0.273800 -0.246900 -3.883100 -3.501500 0.659200 -7.913000 1.996200 3.577800 3.015900 -5.505200 18.680000 18.308000 -51.237700 39.015700 0.000000 0.000000 19.934700 -41.108900 -11.320000 -5.238400 0.000000 0.000000 0.000000 0.000000 0.000000 0.000000 0.857100 8.195600 -27.784500 -7.219400 49.782000 -22.518000 0.000000 0.000000 -9.248100 -39.977700 18.166700 18.405600 0.000000 0.000000 0.000000 0.000000 0.000000 0.000000 -43.578500 -2.490000 3.188300 51.341800 0.000000 0.000000 -17.934200 0.344700 -20.530700 -0.509600 0.000000 0.000000 -44.553600 5.228400 2.599100 45.148400 0.000000 0.000000 -17.960500 19.770300 8.758700 7.802300 0.000000 0.000000 
0.277155 0.595533 0.887804 10.921400 -1.654400 -5.400100 20.004400 0.107600 1.670700 10.772500 0.675400 0.210200 11.734400 -0.318400 -1.172100 2.243400 -0.231500 -0.311000 -3.897000 -3.542700 0.597900 -7.899200 1.927600 3.462600 3.010700 -5.462800 18.584300 19.101000 -51.191900 39.494200 0.000000 0.000000 19.885600 -40.971900 -11.174500 -5.287200 0.000000 0.000000 0.000000 0.000000 0.000000 0.000000 1.215800 8.306500 -27.596800 -7.294600 49.653000 -22.223000 0.000000 0.000000 -9.329500 -39.728700 17.996600 18.442300 0.000000 0.000000 0.000000 0.000000 0.000000 0.000000 -42.768500 -2.623700 3.135200 49.881400 0.000000 0.000000 -17.355200 0.356500 -20.639700 -0.423400 0.000000 0.000000 -43.762700 5.114700 2.279600 43.744100 0.000000 0.000000 -17.400700 19.915700 8.782300 7.870800 0.000000 0.000000 
0.276347 0.594952 0.893097 10.978700 -1.496400 -5.377900 19.633900 0.028600 1.593800 10.571500 0.618100 0.189500 11.503500 -0.306600 -1.250000 2.211800 -0.188900 -0.372800 -3.988700 -3.527300 0.567200 -7.882600 1.893600 3.338800 3.015000 -5.461800 18.563400 19.980200 -51.117700 39.966300 0.000000 0.000000 19.801100 -40.856900 -11.123800 -5.323200 0.000000 0.000000 0.000000 0.000000 0.000000 0.000000 1.564000 8.360400 -27.359600 -7.386800 49.748800 -21.862700 0.000000 0.000000 -9.329900 -39.512700 17.847700 18.597400 0.000000 0.000000 0.000000 0.000000 0.000000 0.000000 -41.841400 -2.706700 3.020400 48.187800 0.000000 0.000000 -16.673700 0.319600 -20.606100 -0.432000 0.000000 0.000000 -42.802500 4.994400 1.950000 42.036700 0.000000 0.000000 -16.781000 20.060800 8.873700 7.975900 0.000000 0.000000 
0.275641 0.594035 0.898644 10.967500 -1.412200 -5.535000 19.233900 0.050300 1.490200 10.359300 0.608500 0.180400 11.246300 -0.243400 -1.215700 2.171400 -0.170800 -0.403300 -4.116700 -3.543300 0.579700 -7.816500 1.891600 3.231400 3.089900 -5.529600 18.521800 20.821800 -51.001000 40.339400 0.000000 0.000000 19.741700 -40.754300 -11.179800 -5.353000 0.000000 0.000000 0.000000 0.000000 0.000000 0.000000 1.848900 8.381800 -27.121600 -7.367700 50.108900 -21.512500 0.000000 0.000000 -9.255200 -39.269800 17.654700 18.587900 0.000000 0.000000 0.000000 0.000000 0.000000 0.000000 -40.795600 -2.763000 2.958600 46.400500 0.000000 0.000000 -15.959500 0.206100 -20.431300 -0.581600 0.000000 0.000000 -41.668600 4.849500 1.745400 40.172400 0.000000 0.000000 -16.145500 20.124400 9.007000 8.052500 0.000000 0.000000 
0.274836 0.592656 0.904207 10.863000 -1.330500 -5.767100 18.781800 0.082000 1.407400 10.116700 0.618400 0.187500 11.040400 -0.182200 -1.123500 2.149100 -0.168600 -0.402900 -4.189200 -3.573700 0.605600 -7.737200 1.865000 3.173000 3.214300 -5.579000 18.426900 21.553500 -51.019700 40.594900 0.000000 0.000000 19.678700 -40.603800 -11.226700 -5.363000 0.000000 0.000000 0.000000 0.000000 0.000000 0.000000 2.149800 8.478300 -26.951000 -7.238700 50.494300 -21.173200 0.000000 0.000000 -9.144500 -38.958500 17.451400 18.286500 0.000000 0.000000 0.000000 0.000000 0.000000 0.000000 -39.594800 -2.832700 2.907900 44.548100 0.000000 0.000000 -15.260500 0.070300 -20.208600 -0.655000 0.000000 0.000000 -40.396000 4.679900 1.576800 38.279300 0.000000 0.000000 -15.496300 20.081200 9.151000 8.066000 0.000000 0.000000 
0.273695 0.591030 0.909518 10.722200 -1.130400 -5.848000 18.281600 0.015900 1.371600 9.832100 0.590800 0.189800 10.839200 -0.202100 -1.126600 2.151500 -0.162600 -0.404400 -4.102800 -3.573700 0.602600 -7.745100 1.762500 3.170900 3.371900 -5.530700 18.257900 22.268000 -51.256700 40.848900 0.000000 0.000000 19.622600 -40.326100 -11.221100 -5.340500 0.000000 0.000000 0.000000 0.000000 0.000000 0.000000 2.501500 8.678300 -26.797600 -7.093400 50.762600 -20.783800 0.000000 0.000000 -9.024700 -38.547100 17.307800 17.900800 0.000000 0.000000 0.000000 0.000000 0.000000 0.000000 -38.290900 -2.942700 2.707400 42.649600 0.000000 0.000000 -14.602600 0.000300 -20.040200 -0.475200 0.000000 0.000000 -39.112600 4.481500 1.259900 36.474300 0.000000 0.000000 -14.846600 20.029100 9.261300 8.063800 0.000000 0.000000 
0.272176 0.589407 0.914403 10.583200 -0.804300 -5.717200 17.793000 -0.130800 1.362100 9.523500 0.520700 0.169100 10.533000 -0.287600 -1.292600 2.159700 -0.144300 -0.442900 -3.828200 -3.605400 0.571800 -7.865200 1.604900 3.196800 3.616200 -5.418700 17.960200 23.172800 -51.502400 41.296400 0.000000 0.000000 19.696500 -39.932100 -11.303200 -5.286600 0.000000 0.000000 0.000000 0.000000 0.000000 0.000000 2.884100 8.864600 -26.541400 -7.065900 51.001900 -20.227500 0.000000 0.000000 -8.956900 -38.066700 17.256100 17.676900 0.000000 0.000000 0.000000 0.000000 0.000000 0.000000 -36.967500 -3.102500 2.349100 40.763100 0.000000 0.000000 -13.989800 0.003900 -19.974900 -0.182700 0.000000 0.000000 -37.900400 4.232100 0.831300 34.808700 0.000000 0.000000 -14.214400 20.078000 9.254700 8.096400 0.000000 0.000000 
0.270464 0.587619 0.918926 10.430300 -0.484800 -5.543900 17.313400 -0.235700 1.325500 9.207500 0.465400 0.134000 10.118200 -0.351300 -1.541600 2.162600 -0.113600 -0.525300 -3.375200 -3.720300 0.564100 -8.035300 1.429200 3.213500 3.908600 -5.302300 17.542700 24.420000 -51.597500 41.987900 0.000000 0.000000 20.001900 -39.514100 -11.556500 -5.221700 0.000000 0.000000 0.000000 0.000000 0.000000 0.000000 3.299700 8.947900 -26.138500 -7.168700 51.280200 -19.459100 0.000000 0.000000 -9.004700 -37.623400 17.321200 17.602500 0.000000 0.000000 0.000000 0.000000 0.000000 0.000000 -35.658600 -3.283000 2.023500 38.947800 0.000000 0.000000 -13.408100 0.028700 -19.968000 -0.007300 0.000000 0.000000 -36.711500 3.928900 0.574400 33.221200 0.000000 0.000000 -13.578500 20.198900 9.048000 8.133700 0.000000 0.000000 
0.268699 0.585236 0.923366 10.261300 -0.284700 -5.504400 16.749700 -0.219600 1.228200 8.853200 0.470800 0.103800 9.700200 -0.344200 -1.763100 2.171800 -0.072800 -0.625100 -2.749000 -3.836000 0.611400 -8.205200 1.211800 3.220200 4.087300 -5.168900 17.117000 26.022500 -51.679200 42.842600 0.000000 0.000000 20.409900 -39.135400 -11.824000 -5.156600 0.000000 0.000000 0.000000 0.000000 0.000000 0.000000 3.758300 8.984500 -25.640300 -7.159900 51.512800 -18.661300 0.000000 0.000000 -9.152800 -37.322600 17.453400 17.570100 0.000000 0.000000 0.000000 0.000000 0.000000 0.000000 -34.340400 -3.441700 1.855600 37.171700 0.000000 0.000000 -12.823800 0.075900 -19.900300 0.074200 0.000000 0.000000 -35.446300 3.582100 0.717700 31.572100 0.000000 0.000000 -12.882800 20.292900 8.608200 8.146500 0.000000 0.000000 
0.266822 0.582099 0.928032 10.124100 -0.179500 -5.596100 16.039400 -0.128900 1.096900 8.421300 0.515100 0.080400 9.329200 -0.263300 -1.920700 2.192100 -0.030200 -0.724800 -2.012200 -3.885700 0.690200 -8.340200 0.938900 3.222700 4.096300 -5.051400 16.774700 27.841900 -51.876400 43.771000 0.000000 0.000000 20.661700 -38.760000 -11.930600 -5.149300 0.000000 0.000000 0.000000 0.000000 0.000000 0.000000 4.205900 9.074500 -25.061400 -6.700000 51.659500 -18.181900 0.000000 0.000000 -9.276300 -37.146400 17.476700 17.546500 0.000000 0.000000 0.000000 0.000000 0.000000 0.000000 -32.967200 -3.565700 1.745700 35.286200 0.000000 0.000000 -12.190100 0.177000 -19.675400 0.231200 0.000000 0.000000 -34.060400 3.186500 1.227800 29.719400 0.000000 0.000000 -12.073800 20.375400 7.951500 8.221300 0.000000 0.000000 
